<?xml version="1.0" standalone="no"?>
<!DOCTYPE svg PUBLIC "-//W3C//DTD SVG 20010904//EN"
 "http://www.w3.org/TR/2001/REC-SVG-20010904/DTD/svg10.dtd">
<svg version="1.0" xmlns="http://www.w3.org/2000/svg"
 width="600.000000pt" height="400.000000pt" viewBox="0 0 600.000000 400.000000"
 preserveAspectRatio="xMidYMid meet">
<g transform="translate(0.000000,400.000000) scale(0.100000,-0.100000)"
fill="#000000" stroke="none">
<path d="M990 2580 c-9 -17 -169 -262 -341 -524 -22 -32 -39 -65 -39 -72 0
-12 49 -14 284 -14 l284 0 63 98 c35 53 125 191 201 305 76 115 138 213 138
218 0 5 -124 9 -290 9 -281 0 -290 -1 -300 -20z m539 -22 c8 -12 7 -19 -1 -24
-7 -4 -8 -3 -4 4 4 7 5 12 2 12 -3 0 -13 -17 -22 -37 -25 -53 -80 -124 -89
-115 -5 4 -5 1 -1 -5 4 -8 -12 -40 -38 -78 -26 -36 -46 -69 -46 -74 0 -6 -5
-13 -12 -17 -7 -5 -8 -3 -3 6 5 8 4 11 -3 6 -6 -4 -9 -13 -6 -21 6 -14 -35
-62 -49 -57 -4 1 -6 -1 -6 -5 4 -24 -2 -53 -10 -49 -5 3 -11 -4 -15 -17 -5
-19 -8 -20 -17 -7 -9 13 -10 13 -6 -2 5 -15 -23 -63 -47 -80 -6 -4 -123 -7
-261 -8 -218 0 -252 1 -252 15 0 10 4 12 13 4 8 -7 14 -6 20 2 4 7 3 9 -4 5
-7 -4 -10 1 -9 14 1 15 6 19 22 14 14 -4 16 -3 7 4 -12 8 -11 15 3 42 9 18 21
38 26 44 6 6 17 20 25 31 9 11 13 15 10 9 -3 -6 1 -11 9 -11 10 0 11 5 5 18
-7 12 -5 21 5 29 8 7 12 17 8 24 -3 6 -3 8 2 4 7 -7 55 43 55 58 0 5 -5 2 -10
-6 -5 -8 -10 -10 -10 -5 0 15 37 44 46 37 5 -4 3 0 -3 8 -10 13 -6 22 22 48
23 20 41 29 52 26 11 -4 14 -2 8 3 -17 14 -17 35 0 53 14 16 21 34 24 63 1 4
8 7 17 5 10 -2 19 4 21 12 4 13 3 13 -6 0 -8 -11 -11 -11 -11 -2 0 19 31 27
42 11 7 -10 8 -9 4 6 -6 20 -1 20 238 20 219 0 245 -2 255 -17z m16 12 c3 -5
1 -10 -4 -10 -6 0 -11 5 -11 10 0 6 2 10 4 10 3 0 8 -4 11 -10z"/>
<path d="M1000 2501 c0 -6 4 -13 10 -16 6 -3 7 1 4 9 -7 18 -14 21 -14 7z"/>
<path d="M1285 2239 c-4 -6 -5 -12 -2 -15 2 -3 7 2 10 11 7 17 1 20 -8 4z"/>
<path d="M706 2093 c-6 -14 -5 -15 5 -6 7 7 10 15 7 18 -3 3 -9 -2 -12 -12z"/>
<path d="M2912 2457 c-41 -44 -25 -108 33 -127 67 -22 127 34 104 99 -13 37
-35 51 -82 51 -22 0 -41 -8 -55 -23z m94 -19 c16 -7 20 -16 16 -36 -10 -49
-33 -59 -80 -34 -16 9 -22 21 -20 41 1 18 7 27 14 24 7 -2 15 1 20 8 5 8 3 10
-6 4 -8 -5 -11 -4 -6 3 7 11 23 9 62 -10z"/>
<path d="M2620 2293 l0 -163 -170 0 -170 0 0 160 0 160 -75 0 -75 0 0 -390 0
-390 75 0 75 0 0 165 0 165 170 0 170 0 0 -165 0 -165 75 0 75 0 -2 391 -3
391 -73 1 -72 2 0 -162z m-378 9 c-4 -133 10 -202 40 -202 7 0 80 -2 163 -4
151 -3 189 0 180 14 -3 4 2 10 10 14 12 4 15 31 15 151 l0 145 40 0 40 0 1
-207 c0 -115 1 -271 3 -348 2 -77 1 -146 -1 -152 -3 -8 -22 -13 -44 -13 l-39
0 0 147 c0 122 -3 149 -17 165 -14 16 -34 18 -189 18 -204 0 -194 6 -194 -123
0 -46 -3 -112 -6 -146 l-7 -61 -33 0 -34 0 0 350 c0 193 0 353 0 358 -1 4 16
10 37 13 21 3 38 7 38 8 0 0 -1 -57 -3 -127z"/>
<path d="M4640 2060 l0 -390 70 0 70 0 0 133 c1 126 1 131 18 111 9 -12 57
-71 105 -133 l88 -111 79 0 c44 0 80 2 80 5 0 3 -49 65 -108 138 -60 72 -112
137 -115 144 -5 8 33 62 97 140 58 70 106 130 106 133 0 3 -36 4 -80 2 l-79
-4 -93 -116 -93 -116 -3 227 -2 227 -70 0 -70 0 0 -390z m105 361 c6 -1 9 -76
8 -208 -2 -176 0 -210 13 -224 9 -10 13 -23 8 -30 -5 -8 -3 -10 7 -5 8 4 6 1
-5 -8 -21 -17 -23 -27 -25 -153 l-1 -93 -40 0 -40 0 0 359 c0 379 -1 373 45
366 11 -2 25 -4 30 -4z m291 -264 c-22 -27 -48 -59 -57 -73 -9 -14 -25 -32
-35 -40 -10 -9 -12 -12 -4 -8 8 4 0 -8 -17 -26 -39 -40 -41 -59 -10 -87 37
-35 73 -77 57 -68 -8 5 2 -8 22 -29 21 -21 36 -42 33 -46 -3 -5 0 -12 6 -16 8
-5 9 -3 4 7 -7 11 -6 12 6 2 8 -6 22 -25 31 -41 l18 -30 -41 0 c-35 -1 -46 5
-84 46 -25 26 -45 52 -45 58 0 6 -13 23 -30 37 -16 15 -30 32 -30 38 0 5 -4 7
-10 4 -5 -3 -7 0 -4 9 3 8 -3 19 -15 26 -24 12 -60 73 -39 65 7 -3 27 11 43
31 17 20 47 55 67 78 21 23 38 44 38 48 0 14 52 58 61 53 5 -4 9 -2 9 3 0 5
15 9 34 8 l34 -1 -42 -48z"/>
<path d="M1353 2063 c-64 -98 -121 -181 -127 -185 -6 -4 -59 -8 -117 -8 l-107
0 -71 -110 c-40 -61 -74 -117 -77 -125 -5 -13 36 -15 322 -15 l329 1 196 297
c108 163 200 303 203 310 6 9 -40 12 -214 12 l-221 0 -116 -177z m507 137 c-5
-9 -6 -21 -2 -25 4 -5 2 -5 -5 -2 -6 4 -13 3 -15 -3 -3 -9 -34 -20 -63 -22 -6
-1 -11 -10 -11 -20 0 -18 1 -18 13 -2 7 10 16 15 19 11 4 -4 14 -1 22 6 11 9
11 4 -2 -15 -10 -16 -22 -28 -27 -28 -5 0 -8 -6 -6 -12 1 -7 -3 -12 -10 -11
-7 2 -10 -3 -7 -10 2 -7 -4 -22 -16 -32 -11 -10 -20 -23 -20 -30 0 -7 -9 -20
-20 -30 -12 -11 -18 -25 -15 -34 3 -8 3 -12 -1 -9 -3 4 -15 -2 -27 -12 -11
-11 -25 -17 -30 -13 -6 3 -7 1 -3 -6 4 -6 12 -8 18 -5 6 4 6 -2 -1 -15 -7 -11
-15 -21 -19 -21 -5 0 -14 -16 -22 -35 -8 -19 -17 -35 -21 -35 -4 0 -14 -12
-22 -27 -7 -16 -19 -27 -27 -25 -11 3 -11 0 1 -14 12 -15 12 -17 0 -9 -11 6
-13 4 -7 -11 4 -10 4 -15 0 -11 -8 8 -40 -34 -36 -47 2 -5 -4 -6 -12 -3 -9 4
-17 3 -20 -1 -2 -4 -135 -6 -296 -4 l-291 3 20 28 c11 16 17 31 14 35 -4 4 1
4 11 0 12 -5 17 -2 14 7 -1 8 7 28 20 46 12 17 22 36 22 43 0 6 4 9 10 5 5 -3
7 -13 4 -23 -5 -14 -4 -14 4 -3 6 9 7 22 2 30 -14 28 14 38 111 41 125 3 144
5 143 16 -1 5 6 14 15 21 9 7 12 13 7 13 -5 0 -3 7 4 15 7 8 16 12 21 9 5 -3
6 3 2 12 -5 13 -3 15 7 9 9 -5 11 -4 6 4 -9 14 12 43 25 35 5 -3 6 3 2 12 -4
10 -2 15 3 11 6 -3 11 4 11 15 1 11 10 26 20 33 10 7 19 18 19 24 3 22 4 23
19 11 13 -11 14 -10 9 4 -8 20 22 85 42 93 8 3 14 11 14 18 0 10 41 13 195 13
183 0 194 -1 185 -18z"/>
<path d="M1491 2176 c-10 -11 -9 -14 1 -12 14 2 23 15 15 22 -2 2 -10 -2 -16
-10z"/>
<path d="M1606 1885 c-9 -26 -7 -32 5 -12 6 10 9 21 6 23 -2 3 -7 -2 -11 -11z"/>
<path d="M1017 1777 c-3 -8 1 -14 8 -14 7 0 11 6 8 14 -3 7 -6 13 -8 13 -2 0
-5 -6 -8 -13z"/>
<path d="M3157 2233 c-1 -1 -1 -128 1 -282 l3 -281 69 0 70 0 0 174 0 174 30
31 c32 32 84 47 124 37 24 -6 24 -5 28 69 3 68 1 75 -18 79 -50 13 -114 -22
-156 -84 l-17 -25 0 52 -1 51 -66 4 c-36 1 -66 2 -67 1z m296 -73 c0 -37 -1
-38 -45 -44 -44 -5 -101 -42 -122 -77 -12 -20 -16 -53 -16 -122 0 -52 -3 -122
-6 -156 l-7 -61 -33 0 c-19 0 -34 5 -34 10 -1 6 -1 96 -1 200 0 105 0 213 1
240 l0 50 35 0 c30 0 35 -3 35 -24 0 -35 10 -55 32 -67 12 -7 18 -7 14 -1 -3
5 4 12 16 15 12 4 19 9 16 13 -10 10 40 55 70 64 34 9 45 -1 45 -40z"/>
<path d="M3702 2227 c-52 -16 -126 -89 -152 -148 -25 -59 -30 -157 -11 -226
45 -165 261 -240 455 -159 l35 14 -17 52 c-12 39 -20 49 -32 44 -36 -16 -117
-34 -150 -34 -41 0 -108 29 -132 56 -9 11 -21 31 -27 47 l-11 27 195 0 195 0
0 63 c0 176 -93 278 -250 276 -36 -1 -80 -6 -98 -12z m179 -30 c42 -13 106
-63 101 -79 -1 -5 3 -8 8 -8 5 0 9 -3 8 -7 -1 -5 3 -17 8 -28 6 -11 12 -48 13
-82 l2 -63 -78 -1 c-43 0 -122 0 -176 1 -108 1 -135 -10 -121 -52 4 -13 7 -25
6 -28 -2 -20 41 -66 80 -86 53 -27 164 -34 186 -12 7 7 12 9 12 5 0 -4 8 -3
18 2 11 6 24 6 33 0 7 -5 10 -9 5 -9 -5 0 -2 -8 5 -17 7 -10 10 -15 5 -11 -5
4 -23 0 -40 -9 -39 -22 -237 -26 -243 -5 -3 6 -12 12 -20 12 -29 0 -95 63
-115 109 -30 71 -28 232 3 252 6 3 10 9 9 13 -2 11 58 76 70 76 5 0 10 5 10
12 0 6 3 9 6 5 3 -3 20 1 37 8 41 18 112 19 168 2z"/>
<path d="M3725 2144 c-15 -11 -21 -11 -34 -1 -11 9 -13 9 -8 0 5 -7 -4 -34
-18 -60 -53 -101 -28 -125 131 -121 131 4 150 14 141 77 -3 22 -10 46 -16 53
-6 7 -20 24 -31 37 -11 13 -20 21 -20 16 0 -4 -6 -2 -14 4 -18 15 -108 11
-131 -5z m135 -27 c28 -14 50 -54 53 -93 l2 -26 -125 1 c-125 0 -125 0 -122
23 6 34 31 73 61 91 31 20 96 22 131 4z"/>
<path d="M4256 2230 c-41 -13 -92 -50 -111 -82 -20 -35 -22 -106 -3 -145 19
-39 70 -70 165 -99 112 -34 140 -66 93 -109 -36 -32 -144 -28 -241 10 -13 5
-19 -4 -28 -40 -6 -25 -9 -50 -7 -54 13 -20 125 -45 206 -46 71 0 93 4 135 25
116 58 128 213 21 274 -22 14 -75 34 -116 46 -89 26 -102 35 -98 69 6 49 95
66 191 37 l46 -14 11 51 c6 27 9 51 8 52 -2 2 -27 10 -57 19 -58 17 -167 20
-215 6z m174 -33 c0 -5 8 -3 17 4 11 10 14 10 9 2 -5 -9 -1 -13 12 -13 24 0
36 -25 19 -38 -7 -5 -21 -6 -32 -1 -30 12 -155 11 -155 -2 0 -5 -4 -7 -10 -4
-5 3 -10 1 -10 -5 0 -6 -4 -9 -9 -6 -9 6 -31 -37 -31 -62 0 -23 41 -71 65 -77
54 -12 152 -43 171 -53 30 -16 53 -70 49 -119 -2 -39 -36 -103 -55 -103 -5 0
-21 -5 -37 -12 -31 -13 -204 -18 -196 -6 2 5 -12 8 -32 8 -28 0 -38 5 -44 23
-5 12 -7 25 -5 28 4 8 34 4 67 -10 16 -6 57 -11 92 -11 59 0 66 2 99 35 70 68
33 129 -95 156 -30 6 -64 17 -76 25 -13 8 -23 11 -23 7 0 -17 -50 43 -60 71
-21 65 19 140 83 156 23 6 47 13 52 15 21 8 135 2 135 -8z"/>
<path d="M2900 1950 l0 -280 70 0 70 0 0 280 0 280 -70 0 -70 0 0 -280z m110
3 l0 -253 -40 0 -41 0 1 249 c1 146 5 251 11 253 5 2 23 3 39 3 l30 0 0 -252z"/>
<path d="M1345 2159 c-4 -6 -5 -12 -2 -15 2 -3 7 2 10 11 7 17 1 20 -8 4z"/>
<path d="M4833 2125 c0 -8 4 -12 9 -9 5 3 6 10 3 15 -9 13 -12 11 -12 -6z"/>
<path d="M1290 2096 c0 -2 7 -7 16 -10 8 -3 12 -2 9 4 -6 10 -25 14 -25 6z"/>
<path d="M586 2033 c-6 -14 -5 -15 5 -6 7 7 10 15 7 18 -3 3 -9 -2 -12 -12z"/>
<path d="M1250 2015 c-7 -9 -11 -17 -9 -20 3 -2 10 5 17 15 14 24 10 26 -8 5z"/>
<path d="M4085 1811 c-3 -5 -2 -12 3 -15 5 -3 9 1 9 9 0 17 -3 19 -12 6z"/>
<path d="M5165 1741 c-3 -5 -2 -12 3 -15 5 -3 9 1 9 9 0 17 -3 19 -12 6z"/>
<path d="M809 1663 c-13 -16 -12 -17 4 -4 9 7 17 15 17 17 0 8 -8 3 -21 -13z"/>
<path d="M4777 1623 c3 -7 6 -13 8 -13 2 0 5 6 8 13 3 8 -1 14 -8 14 -7 0 -11
-6 -8 -14z"/>
</g>
</svg>
