<svg width="167" height="31" viewBox="0 0 167 31" fill="none" xmlns="http://www.w3.org/2000/svg">
<path d="M60.8932 24.5L60.9192 0.499985H64.5152V15.1666L69.2837 6.49998H73.6613L68.5801 15.5L74.0001 24.5H69.3879L64.5152 15.8333V24.5H60.8932Z" fill="black"/>
<path d="M53.4701 25C51.6982 25 50.2651 24.4889 49.1707 23.4667C48.0849 22.4333 47.4248 20.9778 47.1903 19.1L50.8123 18.4C50.9599 19.2444 51.2857 19.9056 51.7894 20.3833C52.3019 20.8611 52.949 21.1 53.7307 21.1C54.3735 21.1 54.8685 20.9444 55.216 20.6333C55.5634 20.3111 55.7371 19.8667 55.7371 19.3C55.7371 18.9444 55.6676 18.6611 55.5287 18.45C55.3897 18.2278 55.077 18.0111 54.5906 17.8C54.1129 17.5889 53.3659 17.3111 52.3497 16.9667C51.2031 16.5889 50.2868 16.1667 49.6006 15.7C48.9144 15.2333 48.4193 14.6778 48.1153 14.0333C47.8113 13.3778 47.6593 12.5889 47.6593 11.6667C47.6593 10.5111 47.8895 9.51111 48.3499 8.66667C48.8102 7.81111 49.4573 7.15555 50.2911 6.7C51.1337 6.23333 52.1238 6 53.2617 6C54.3648 6 55.3419 6.21667 56.1931 6.65C57.0443 7.08333 57.7305 7.7 58.2517 8.5C58.7815 9.3 59.1072 10.2444 59.2288 11.3333L55.6068 12.1667C55.546 11.5 55.3202 10.9722 54.9293 10.5833C54.5385 10.1944 54.0087 9.96666 53.3399 9.9C52.6884 9.84444 52.1629 9.95555 51.7634 10.2333C51.3725 10.5111 51.1771 10.9111 51.1771 11.4333C51.1771 11.7444 51.2596 12.0056 51.4246 12.2167C51.5983 12.4278 51.9501 12.6444 52.48 12.8667C53.0185 13.0889 53.8349 13.3778 54.9293 13.7333C55.9977 14.0889 56.8533 14.5056 57.496 14.9833C58.1474 15.45 58.6208 16.0167 58.9161 16.6833C59.2114 17.3389 59.3591 18.1333 59.3591 19.0667C59.3591 20.9111 58.838 22.3611 57.7957 23.4167C56.7534 24.4722 55.3115 25 53.4701 25Z" fill="black"/>
<path d="M39.9621 25C38.5202 25 37.2478 24.6056 36.1447 23.8167C35.0503 23.0167 34.1904 21.9222 33.565 20.5333C32.9483 19.1333 32.64 17.5333 32.64 15.7333C32.64 13.7667 32.944 12.0556 33.552 10.6C34.16 9.14444 34.9981 8.01667 36.0665 7.21667C37.1349 6.40556 38.3639 6 39.7536 6C41.2302 6 42.4853 6.44444 43.5189 7.33333C44.5525 8.22222 45.3169 9.47222 45.812 11.0833C46.307 12.6944 46.4808 14.5889 46.3331 16.7667H42.8284V15.1C42.8284 13.2667 42.5982 11.95 42.1379 11.15C41.6862 10.3389 40.9436 9.93333 39.91 9.93333C38.7026 9.93333 37.8123 10.4056 37.2391 11.35C36.6745 12.2833 36.3922 13.6667 36.3922 15.5C36.3922 17.1778 36.6745 18.4778 37.2391 19.4C37.8123 20.3111 38.6505 20.7667 39.7536 20.7667C40.4485 20.7667 41.0435 20.5722 41.5385 20.1833C42.0336 19.7944 42.4115 19.2333 42.672 18.5L46.2159 19.8C45.686 21.4444 44.8478 22.7222 43.7013 23.6333C42.5635 24.5444 41.3171 25 39.9621 25ZM35.2978 16.7667V13.4H44.6263V16.7667H35.2978Z" fill="black"/>
<path d="M24.2405 24.5V6.49999H27.3674V10.9L27.0286 10.3333C27.211 9.7111 27.4542 9.14443 27.7582 8.63332C28.0622 8.12221 28.4357 7.69999 28.8787 7.36665C29.2174 7.09999 29.5866 6.89443 29.9861 6.74999C30.3857 6.59443 30.7983 6.49999 31.2239 6.46665C31.6495 6.42221 32.0751 6.43332 32.5007 6.49999V10.7333C32.1098 10.5778 31.6538 10.5278 31.1327 10.5833C30.6202 10.6278 30.1555 10.7778 29.7386 11.0333C29.3217 11.2778 28.9699 11.6055 28.6833 12.0167C28.3966 12.4167 28.1795 12.8944 28.0318 13.45C27.8842 13.9944 27.8103 14.6111 27.8103 15.3V24.5H24.2405Z" fill="black"/>
<path d="M18.0936 4V0H21.6374V4H18.0936ZM18.0936 24.5V6.5H21.6374V24.5H18.0936Z" fill="black"/>
<path d="M0 24.5V0.499985H3.5438V10.3666H11.9343V0.499985H15.4781V24.5H11.9343V14.6H3.5438V24.5H0Z" fill="black"/>
</svg>
